<?xml version="1.0" standalone="no"?>
<!DOCTYPE svg PUBLIC "-//W3C//DTD SVG 20010904//EN"
 "http://www.w3.org/TR/2001/REC-SVG-20010904/DTD/svg10.dtd">
<svg version="1.0" xmlns="http://www.w3.org/2000/svg"
 width="700.000000pt" height="700.000000pt" viewBox="0 0 700.000000 700.000000"
 preserveAspectRatio="xMidYMid meet">
<metadata>
Created by potrace 1.11, written by Peter Selinger 2001-2013
</metadata>
<g transform="translate(0.000000,700.000000) scale(0.100000,-0.100000)"
fill="#000000" stroke="none">
<path d="M3313 4224 c-151 -38 -249 -92 -346 -188 -77 -75 -118 -134 -162
-229 -51 -111 -66 -182 -66 -312 1 -248 121 -473 329 -614 192 -130 403 -158
664 -87 29 8 137 64 182 95 98 68 199 190 252 304 83 183 83 431 0 613 -91
199 -259 345 -476 412 -108 34 -259 37 -377 6z m282 -268 c210 -55 353 -234
358 -446 7 -261 -211 -480 -476 -480 -161 0 -327 102 -405 248 -141 264 -6
587 282 672 74 22 173 25 241 6z"/>
<path d="M3449 3739 c-81 -12 -149 -62 -185 -137 -25 -49 -25 -153 0 -204 72
-148 268 -186 384 -75 116 111 99 296 -34 384 -38 24 -115 40 -165 32z"/>
<path d="M130 4036 c8 -7 67 -54 130 -104 l116 -90 1047 1 c692 1 1047 -1
1048 -8 1 -5 2 -55 3 -110 l1 -100 -907 0 c-500 0 -908 -2 -908 -5 1 -3 37
-32 81 -65 44 -33 88 -67 97 -75 9 -9 33 -27 53 -41 l36 -24 774 0 774 0 0
-102 c0 -56 -3 -105 -7 -108 -3 -3 -290 -6 -637 -6 l-631 -1 52 -41 c29 -23
55 -44 58 -47 3 -3 39 -31 81 -62 l76 -58 607 0 c477 0 606 3 607 13 1 6 2
103 3 215 l1 204 -82 46 c-45 26 -83 49 -83 52 0 3 35 25 78 49 42 25 79 46
82 48 2 2 4 100 5 218 l0 215 -1285 0 c-1082 0 -1282 -2 -1270 -14z"/>
<path d="M4319 4048 c-1 -2 -2 -99 -3 -216 l-1 -213 82 -47 c46 -26 83 -49 83
-52 0 -3 -38 -26 -83 -52 l-82 -46 0 -214 1 -213 609 -3 610 -2 90 70 c50 39
110 86 133 105 l44 34 -629 0 c-345 0 -633 0 -638 1 -6 0 -10 41 -10 108 l0
107 777 0 777 0 111 88 c61 48 119 93 130 99 11 7 20 15 20 18 0 3 -407 5
-905 5 -598 0 -905 3 -906 10 -1 5 -2 54 -3 108 l-1 97 55 1 c30 0 502 0 1049
0 l995 0 40 32 c23 17 43 34 46 37 3 3 40 32 83 64 43 33 80 63 83 68 3 4
-571 8 -1275 8 -705 0 -1282 -1 -1282 -2z"/>
</g>
</svg>
